<svg
  width="120"
  height="38"
  viewBox="0 0 133 38"
  fill="none"
  xmlns="http://www.w3.org/2000/svg"
  >
  <path
    d="M40.0098 34.0001H0.009758V38.0001H40.0098V34.0001Z"
    fill="black"
    />
  <path
    fill-rule="evenodd"
    clip-rule="evenodd"
    d="M10.0098 13.0001L0.009758 6.0001V30.0001H40.0098V6.0001L30.0098 13.0001L20.0098 9.91821e-05L10.0098 13.0001ZM4.00976 26.0001V13.6827L10.8487 18.4699L20.0098 6.56058L29.1708 18.4699L36.0098 13.6827V26.0001H4.00976Z"
    fill="black"
    />
  <path
    fill-rule="evenodd"
    clip-rule="evenodd"
    d="M98.3305 20.7589C97.9956 22.7562 97.3319 24.4305 96.3392 25.7819C95.3466 27.1333 94.1417 28.1529 92.7245 28.8406C91.3073 29.5282 89.7914 29.8721 88.1769 29.8721C86.4547 29.8721 84.9598 29.4983 83.6921 28.7509C82.4244 28.0034 81.5005 26.9091 80.9204 25.468C80.3404 24.0269 80.2238 22.2658 80.5706 20.1849C80.8935 18.1876 81.5513 16.5073 82.544 15.144C83.5366 13.7806 84.7475 12.7491 86.1766 12.0494C87.6058 11.3498 89.1336 11 90.7601 11C92.4703 11 93.9563 11.3767 95.218 12.1302C96.4857 12.8836 97.4066 13.9869 97.9807 15.44C98.5607 16.893 98.6773 18.666 98.3305 20.7589ZM93.3075 20.1849C93.4749 19.1324 93.4869 18.2474 93.3434 17.5299C93.1999 16.8063 92.8979 16.2622 92.4374 15.8974C91.977 15.5267 91.3581 15.3413 90.5807 15.3413C89.6957 15.3413 88.9124 15.5566 88.2307 15.9871C87.549 16.4176 86.9839 17.0365 86.5354 17.8438C86.087 18.6511 85.773 19.6228 85.5936 20.7589C85.4023 21.8233 85.3843 22.7083 85.5398 23.4139C85.7013 24.1195 86.0182 24.6488 86.4906 25.0016C86.969 25.3544 87.5909 25.5308 88.3563 25.5308C89.2293 25.5308 90.0007 25.3215 90.6704 24.9029C91.3461 24.4843 91.9052 23.8774 92.3477 23.0821C92.7962 22.2868 93.1161 21.321 93.3075 20.1849Z"
    fill="black"
    />
  <path
    d="M116.286 29.6209L119.335 11.2511H132.574L131.893 15.2695H123.641L123.138 18.4268H130.709L130.027 22.4452H122.457L121.954 25.6025H130.171L129.489 29.6209H116.286Z"
    fill="black"
    />
  <path d="M46 34.0001H130V38.0001H46V34.0001Z" fill="black" />
  <path
    fill-rule="evenodd"
    clip-rule="evenodd"
    d="M102.217 11.2511L99.167 29.6209H104.154L105.167 23.5574H106.886L109.105 29.6209H114.523L111.929 22.7711C112.959 22.309 113.815 21.6592 114.496 20.8217C115.232 19.9188 115.707 18.8095 115.922 17.494C116.137 16.1904 116.039 15.0722 115.626 14.1394C115.214 13.2065 114.538 12.4919 113.599 11.9956C112.66 11.4993 111.509 11.2511 110.146 11.2511H102.217ZM107.563 19.6826H105.815L106.558 15.2336H108.316C108.89 15.2336 109.371 15.3144 109.76 15.4758C110.149 15.6313 110.427 15.8765 110.594 16.2113C110.762 16.5402 110.804 16.9678 110.72 17.494C110.636 18.0202 110.457 18.4448 110.182 18.7677C109.907 19.0846 109.548 19.3178 109.105 19.4673C108.663 19.6108 108.149 19.6826 107.563 19.6826Z"
    fill="black"
    />
  <path
    d="M64.4521 15.2695L65.1338 11.2511H81.0998L80.4181 15.2695H74.8928L72.5248 29.6209H67.6095L69.9774 15.2695H64.4521Z"
    fill="black"
    />
  <path
    d="M57.7473 16.9917C57.8011 16.3997 57.6576 15.9363 57.3167 15.6014C56.9759 15.2606 56.4018 15.0901 55.5946 15.0901C55.0803 15.0901 54.6498 15.1499 54.3029 15.2695C53.9621 15.3891 53.696 15.5536 53.5046 15.7629C53.3193 15.9721 53.2027 16.2143 53.1548 16.4894C53.101 16.7047 53.104 16.902 53.1638 17.0814C53.2296 17.2548 53.3522 17.4133 53.5316 17.5568C53.7169 17.7003 53.9591 17.8289 54.2581 17.9425C54.5631 18.0561 54.9248 18.1577 55.3434 18.2474L56.7786 18.5703C57.7592 18.7856 58.5814 19.0697 59.2452 19.4225C59.9149 19.7693 60.4411 20.1819 60.8239 20.6603C61.2066 21.1386 61.4577 21.6738 61.5773 22.2658C61.7029 22.8578 61.7059 23.5036 61.5863 24.2033C61.383 25.4112 60.9135 26.4337 60.178 27.2709C59.4425 28.108 58.4828 28.7449 57.2988 29.1814C56.1148 29.6179 54.7454 29.8362 53.1907 29.8362C51.6001 29.8362 50.2487 29.6 49.1364 29.1276C48.0302 28.6492 47.2289 27.9197 46.7326 26.939C46.2422 25.9523 46.1227 24.6936 46.3738 23.1628H51.1098C51.038 23.7249 51.0978 24.1973 51.2892 24.58C51.4805 24.9627 51.7885 25.2527 52.213 25.45C52.6376 25.6474 53.1668 25.746 53.8006 25.746C54.3388 25.746 54.7993 25.6803 55.182 25.5487C55.5647 25.4172 55.8666 25.2348 56.0879 25.0016C56.3091 24.7684 56.4437 24.5023 56.4915 24.2033C56.5394 23.9282 56.4915 23.683 56.348 23.4678C56.2045 23.2525 55.9444 23.0581 55.5677 22.8847C55.1909 22.7113 54.6737 22.5529 54.0159 22.4093L52.2579 22.0147C50.6972 21.6559 49.5191 21.0639 48.7238 20.2387C47.9285 19.4135 47.6475 18.2833 47.8807 16.8482C48.072 15.6762 48.5534 14.6536 49.3248 13.7806C50.1022 12.9016 51.0888 12.2199 52.2848 11.7355C53.4867 11.2452 54.8172 11 56.2763 11C57.7592 11 59 11.2482 59.9986 11.7445C61.0032 12.2408 61.7238 12.9374 62.1603 13.8344C62.6028 14.7314 62.7224 15.7838 62.5191 16.9917H57.7473Z"
    fill="black"
    />
</svg>
